<svg xmlns="http://www.w3.org/2000/svg" width="1443" height="325" viewBox="0 0 1443 325" fill="none">
  <!-- Gradient Background -->
  <defs>
    <linearGradient id="paint0_linear_302_281" x1="0" y1="0" x2="1" y2="1" gradientUnits="userSpaceOnUse">
      <stop offset="0%" stop-color="#00B0D6"/>
      <stop offset="100%" stop-color="#1E9BA5"/>
    </linearGradient>
    
    <!-- Logo Definition -->
    <g id="logo">
      <path d="M50 40 L0 -20 L-50 40 L-60 30 L0 -40 L60 30 Z" fill="none" stroke="#FFFFFF" stroke-width="2" stroke-linejoin="round" stroke-linecap="round"/>
      <path d="M50 -20 L30 -50 L-30 -50 L-50 -20 L-40 -20 L-20 -40 L20 -40 L40 -20 Z" fill="none" stroke="#FFFFFF" stroke-width="2" stroke-linejoin="round" stroke-linecap="round"/>
    </g>
  </defs>

  <!-- Background -->
  <rect width="1443" height="325" fill="url(#paint0_linear_302_281)"/>

  <!-- Repeating Logo Pattern with Angled Rows -->
  <g transform="rotate(-34, 1000, 100)">
    <g transform="translate(0, -350)">
      <use href="#logo" x="-200" y="-50" opacity="0.16"/>
      <use href="#logo" x="200" y="-50" opacity="0.24"/>
      <use href="#logo" x="600" y="-50" opacity="0.32"/>
      <use href="#logo" x="1000" y="-50" opacity="0.24"/>
      <use href="#logo" x="1400" y="-50" opacity="0.16"/>
      <use href="#logo" x="1800" y="-50" opacity="0.08"/>
    </g>
    <g transform="translate(0, -250)">
      <use href="#logo" x="-200" y="-50" opacity="0.24"/>
      <use href="#logo" x="200" y="-50" opacity="0.32"/>
      <use href="#logo" x="600" y="-50" opacity="0.40"/>
      <use href="#logo" x="1000" y="-50" opacity="0.32"/>
      <use href="#logo" x="1400" y="-50" opacity="0.24"/>
      <use href="#logo" x="1800" y="-50" opacity="0.16"/>
    </g>
    <g transform="translate(0, -150)">
      <use href="#logo" x="-200" y="-50" opacity="0.32"/>
      <use href="#logo" x="200" y="-50" opacity="0.40"/>
      <use href="#logo" x="600" y="-50" opacity="0.48"/>
      <use href="#logo" x="1000" y="-50" opacity="0.40"/>
      <use href="#logo" x="1400" y="-50" opacity="0.32"/>
      <use href="#logo" x="1800" y="-50" opacity="0.24"/>
    </g>
    <g transform="translate(0, -50)">
      <use href="#logo" x="-200" y="-50" opacity="0.40"/>
      <use href="#logo" x="200" y="-50" opacity="0.48"/>
      <use href="#logo" x="600" y="-50" opacity="0.56"/>
      <use href="#logo" x="1000" y="-50" opacity="0.48"/>
      <use href="#logo" x="1400" y="-50" opacity="0.40"/>
      <use href="#logo" x="1800" y="-50" opacity="0.32"/>
    </g>
    <g transform="translate(0, 50)">
      <use href="#logo" x="-200" y="-50" opacity="0.48"/>
      <use href="#logo" x="200" y="-50" opacity="0.56"/>
      <use href="#logo" x="600" y="-50" opacity="0.64"/>
      <use href="#logo" x="1000" y="-50" opacity="0.56"/>
      <use href="#logo" x="1400" y="-50" opacity="0.48"/>
      <use href="#logo" x="1800" y="-50" opacity="0.40"/>
    </g>
    <g transform="translate(0, 150)">
      <use href="#logo" x="-200" y="-50" opacity="0.40"/>
      <use href="#logo" x="200" y="-50" opacity="0.48"/>
      <use href="#logo" x="600" y="-50" opacity="0.56"/>
      <use href="#logo" x="1000" y="-50" opacity="0.48"/>
      <use href="#logo" x="1400" y="-50" opacity="0.40"/>
      <use href="#logo" x="1800" y="-50" opacity="0.32"/>
    </g>
    <g transform="translate(0, 250)">
      <use href="#logo" x="-200" y="-50" opacity="0.32"/>
      <use href="#logo" x="200" y="-50" opacity="0.40"/>
      <use href="#logo" x="600" y="-50" opacity="0.48"/>
      <use href="#logo" x="1000" y="-50" opacity="0.40"/>
      <use href="#logo" x="1400" y="-50" opacity="0.32"/>
      <use href="#logo" x="1800" y="-50" opacity="0.24"/>
    </g>
    <g transform="translate(0, 350)">
      <use href="#logo" x="-200" y="-50" opacity="0.24"/>
      <use href="#logo" x="200" y="-50" opacity="0.32"/>
      <use href="#logo" x="600" y="-50" opacity="0.40"/>
      <use href="#logo" x="1000" y="-50" opacity="0.32"/>
      <use href="#logo" x="1400" y="-50" opacity="0.24"/>
      <use href="#logo" x="1800" y="-50" opacity="0.16"/>
    </g>
  </g>
</svg>
